<?xml version="1.0" encoding="UTF-8"?>
<svg width="88px" height="80px" viewBox="0 0 88 80" version="1.1" xmlns="http://www.w3.org/2000/svg" xmlns:xlink="http://www.w3.org/1999/xlink">
    <!-- Generator: Sketch 49.3 (51167) - http://www.bohemiancoding.com/sketch -->
    <title>np_browser_1266579_000000</title>
    <desc>Created with Sketch.</desc>
    <defs></defs>
    <g id="BULLDOG" stroke="none" stroke-width="1" fill="none" fill-rule="evenodd">
        <g id="D_HOMEPAGE-BULLDOG" transform="translate(-1059.000000, -2014.000000)" fill="#000000" fill-rule="nonzero">
            <g id="Module-2---Features" transform="translate(175.000000, 1866.000000)">
                <g id="Stacked-Group" transform="translate(89.000000, 148.000000)">
                    <g id="Automated-Testing" transform="translate(745.000000, 0.000000)">
                        <g id="np_browser_1266579_000000" transform="translate(50.000000, 0.000000)">
                            <polygon id="Shape" points="34 21 80 21 80 23 34 23"></polygon>
                            <polygon id="Shape" points="34 28 53 28 53 30 34 30"></polygon>
                            <polygon id="Shape" points="13.4923947 29.1415134 9.88597539 26.2579357 8 28.4606488 13.6808838 33 24 23.0203999 21.9100661 21"></polygon>
                            <polygon id="Shape" points="13.4923947 48.1415134 9.88597539 45.2616506 8 47.4606488 13.6808838 52 24 42.0203999 21.9100661 40"></polygon>
                            <polygon id="Shape" points="17.8112117 59 13.9979878 62.8119455 10.1887883 59 8 61.1880545 11.8091995 65 8 68.8119455 10.1887883 71 13.9979878 67.1880545 17.8112117 71 20 68.8119455 16.1908005 65 20 61.1880545"></polygon>
                            <path d="M83.0053651,0 L4.99750558,0 C2.24273912,0 0,2.25907073 0,5.03013837 L0,74.9661026 C0,77.7409293 2.24273912,80 4.99750558,80 L83.0024944,80 C85.7572609,80 88,77.7409293 88,74.9661026 L88,5.03013837 C88,2.25907073 85.7610884,1.71214086e-15 83.0062263,1.71214086e-15 L83.0053651,0 Z M4.99750558,2.89154885 L83.0024944,2.89154885 C84.1762054,2.89154885 85.1293552,3.85162981 85.1293552,5.03013837 L85.1293552,13.4901356 L2.87485511,13.4939004 L2.87485511,5.03014416 C2.87485511,3.85164523 3.82799531,2.89155463 4.99798402,2.89155463 L4.99750558,2.89154885 Z M83.0053651,77.1079692 L4.99750558,77.1079692 C3.8237946,77.1079692 2.87064483,76.1478883 2.87064483,74.9656207 L2.87064483,16.3818772 L85.1289724,16.385642 L85.1289724,74.9693855 C85.1289724,76.1478844 84.1758322,77.107975 83.0058435,77.107975 L83.0053651,77.1079692 Z" id="Shape"></path>
                            <path d="M79.9981146,10 L80.0018854,10 C81.102716,10 82,9.09811138 82,8 C82,6.90189828 81.0989616,6 80.0018854,6 L79.9981146,6 C78.9010481,6 78,6.90188862 78,8 C78.0037698,9.10186929 78.9048121,10 79.9981146,10 Z" id="Shape"></path>
                            <path d="M73.9981146,10 L74.0018854,10 C75.102716,10 76,9.09811138 76,8 C76,6.90189828 75.0989616,6 74.0018854,6 L73.9981146,6 C72.897284,6 72,6.90188862 72,8 C72.0037698,9.10186929 72.9010384,10 73.9981146,10 Z" id="Shape"></path>
                            <path d="M67,10 C68.1018693,10 69,9.09811138 69,8 C69,6.90189828 68.0981114,6 67,6 C65.8981307,6 65,6.90188862 65,8 C65,9.10186929 65.898121,10 67,10 Z" id="Shape"></path>
                            <polygon id="Shape" points="34 41 80 41 80 43 34 43"></polygon>
                            <polygon id="Shape" points="34 47 53 47 53 49 34 49"></polygon>
                            <polygon id="Shape" points="34 59 80 59 80 61 34 61"></polygon>
                        </g>
                    </g>
                </g>
            </g>
        </g>
    </g>
</svg>