<?xml version="1.0" encoding="UTF-8"?>
<svg width="132px" height="33px" viewBox="0 0 132 33" version="1.1" xmlns="http://www.w3.org/2000/svg" xmlns:xlink="http://www.w3.org/1999/xlink">
    <defs>
        <polygon id="path-1" points="0 33 131.882103 33 131.882103 0.328821429 0 0.328821429"></polygon>
    </defs>
    <g id="BULLDOG" stroke="none" stroke-width="1" fill="none" fill-rule="evenodd">
        <g id="D_HOMEPAGE-BULLDOG" transform="translate(-1154.000000, -147.000000)">
            <g id="Hero" transform="translate(0.000000, 75.000000)">
                <g id="Page-1" transform="translate(1154.000000, 72.000000)">
                    <polygon id="Fill-1" fill="#F16423" points="19 0 29.5721203 6.3754818 30.7512548 7.08468951 30.7512548 8.50679872 30.7512548 23 132 23 126.218703 11.7228587 132 0"></polygon>
                    <polygon id="Fill-2" fill="#F26322" points="14.0134128 0 0 8.22496926 0 24.6535658 3.99933353 27 3.97250802 10.5725891 13.9865872 4.69523977 23.9995001 10.5725891 23.9995001 26.9952573 28 24.6535658 28 8.20955559"></polygon>
                    <polygon id="Fill-3" fill="#F26322" points="16.0023317 26.9454371 14.0040804 28.1600191 11.9965025 26.9539991 11.9965025 10 8 12.4218251 8.0058292 29.3672623 14.0017488 33 20 29.3672623 20 12.4218251 16.0023317 10"></polygon>
                    <g id="Group-36">
                        <path d="M33.6990234,30.5215821 L34.9881809,30.5215821 C35.0459747,31.0531179 35.2712529,31.4939036 36.1523148,31.4939036 C36.7420483,31.4939036 37.1336313,31.1697964 37.1336313,30.7042607 C37.1336313,30.230475 36.8835843,30.0642964 36.0107788,29.9322964 C34.4892663,29.7319393 33.8653283,29.2746536 33.8653283,28.1290821 C33.8653283,27.1155107 34.7133651,26.3588679 36.0272913,26.3588679 C37.3659863,26.3588679 38.1467935,26.9587607 38.2553045,28.1385107 L37.0168641,28.1385107 C36.9331219,27.598725 36.6182043,27.3476893 36.0272913,27.3476893 C35.4363783,27.3476893 35.1379732,27.6222964 35.1379732,28.0206536 C35.1379732,28.4449393 35.3290468,28.6441179 36.2431337,28.778475 C37.6820835,28.959975 38.4216093,29.3500821 38.4216093,30.5793321 C38.4216093,31.6353321 37.55706,32.474475 36.1523148,32.474475 C34.5222914,32.474475 33.7733299,31.7095821 33.6990234,30.5215821" id="Fill-4" fill="#56565A"></path>
                        <path d="M44.2538377,29.4339964 L44.2538377,29.3656393 C44.2538377,28.2118179 43.6381559,27.4233536 42.5990455,27.4233536 C41.5681914,27.4233536 40.9442533,28.1799964 40.9442533,29.3750679 L40.9442533,29.4422464 C40.9442533,30.6538179 41.6424978,31.4022107 42.6155581,31.4022107 C43.6216434,31.4022107 44.2538377,30.6302464 44.2538377,29.4339964 M39.5383287,29.4504964 L39.5383287,29.3844964 C39.5383287,27.6131036 40.8369218,26.3602821 42.5990455,26.3602821 C44.3871175,26.3602821 45.6585829,27.5636036 45.6585829,29.3503179 L45.6585829,29.4163179 C45.6585829,31.1853536 44.4449114,32.4735321 42.5907892,32.4735321 C40.7284109,32.4735321 39.5383287,31.1853536 39.5383287,29.4504964" id="Fill-6" fill="#56565A"></path>
                        <polygon id="Fill-8" fill="#56565A" points="47.1241886 26.4426643 48.4711399 26.4426643 48.4711399 31.3278429 50.8902267 31.3278429 50.8902267 32.3826643 47.1241886 32.3826643"></polygon>
                        <path d="M52.0586067,30.06465 L52.0586067,26.4417214 L53.4138143,26.4417214 L53.4138143,29.98215 C53.4138143,30.97215 53.7051427,31.4023286 54.5201544,31.4023286 C55.3186535,31.4023286 55.6677758,31.02165 55.6677758,29.9314714 L55.6677758,26.4417214 L57.0218039,26.4417214 L57.0218039,30.01515 C57.0218039,31.6356857 56.1159732,32.47365 54.5118981,32.47365 C52.9479249,32.47365 52.0586067,31.6427571 52.0586067,30.06465" id="Fill-10" fill="#56565A"></path>
                        <polygon id="Fill-12" fill="#56565A" points="59.9105545 27.4888821 58.3052999 27.4888821 58.3052999 26.4423107 62.8710166 26.4423107 62.8710166 27.4888821 61.265762 27.4888821 61.265762 32.3823107 59.9105545 32.3823107"></polygon>
                        <mask id="mask-2" fill="white">
                            <use xlink:href="#path-1"></use>
                        </mask>
                        <g id="Clip-15"></g>
                        <polygon id="Fill-14" fill="#56565A" mask="url(#mask-2)" points="64.2373112 32.3836071 65.5925188 32.3836071 65.5925188 26.4424286 64.2373112 26.4424286"></polygon>
                        <path d="M71.8100791,29.4339964 L71.8100791,29.3656393 C71.8100791,28.2118179 71.1943973,27.4233536 70.1552869,27.4233536 C69.1244327,27.4233536 68.4993152,28.1799964 68.4993152,29.3750679 L68.4993152,29.4422464 C68.4993152,30.6538179 69.1975597,31.4022107 70.1706199,31.4022107 C71.1778848,31.4022107 71.8100791,30.6302464 71.8100791,29.4339964 M67.0957495,29.4504964 L67.0957495,29.3844964 C67.0957495,27.6131036 68.3931632,26.3602821 70.1552869,26.3602821 C71.9421794,26.3602821 73.2136448,27.5636036 73.2136448,29.3503179 L73.2136448,29.4163179 C73.2136448,31.1853536 72.0011527,32.4735321 70.1470306,32.4735321 C68.2846522,32.4735321 67.0957495,31.1853536 67.0957495,29.4504964" id="Fill-16" fill="#56565A" mask="url(#mask-2)"></path>
                        <polygon id="Fill-17" fill="#56565A" mask="url(#mask-2)" points="74.6792505 26.4426643 76.2420443 26.4426643 78.504262 30.3543429 78.504262 26.4426643 79.701421 26.4426643 79.701421 32.3826643 78.3544697 32.3826643 75.877589 28.1527714 75.877589 32.3826643 74.6792505 32.3826643"></polygon>
                        <path d="M85.8380698,29.2843179 C86.4950329,29.2843179 86.8441552,28.9672821 86.8441552,28.3768179 L86.8441552,28.3438179 C86.8441552,27.7132821 86.4785204,27.4646036 85.8380698,27.4646036 L85.1563379,27.4646036 L85.1563379,29.2843179 L85.8380698,29.2843179 Z M83.8176429,26.4427821 L85.8699154,26.4427821 C87.3183009,26.4427821 88.1415689,27.0827464 88.1415689,28.3355679 L88.1415689,28.370925 C88.1415689,29.624925 87.2675838,30.2224607 85.9111968,30.2224607 L85.1563379,30.2224607 L85.1563379,32.3827821 L83.8176429,32.3827821 L83.8176429,26.4427821 Z" id="Fill-18" fill="#56565A" mask="url(#mask-2)"></path>
                        <path d="M90.5974551,30.1061357 L92.1696846,30.1061357 L91.387698,27.5392071 L90.5974551,30.1061357 Z M90.5891988,26.4419571 L92.3430662,26.4419571 L94.2726742,32.3831357 L92.867929,32.3831357 L92.4598335,31.0619571 L90.3061267,31.0619571 L89.8992106,32.3831357 L88.634822,32.3831357 L90.5891988,26.4419571 Z" id="Fill-19" fill="#56565A" mask="url(#mask-2)"></path>
                        <path d="M97.676498,29.176125 C98.3487942,29.176125 98.6896602,28.8932679 98.6896602,28.3193036 L98.6896602,28.2863036 C98.6896602,27.6793393 98.3252049,27.4730893 97.676498,27.4730893 L96.9181008,27.4730893 L96.9181008,29.176125 L97.676498,29.176125 Z M95.5817647,26.4430179 L97.7083437,26.4430179 C99.1154478,26.4430179 100.004766,27.0158036 100.004766,28.2450536 L100.004766,28.2780536 C100.004766,29.176125 99.4799031,29.6487321 98.7816586,29.8561607 L100.353888,32.3830179 L98.9243741,32.3830179 L97.5019369,30.0883393 L96.9181008,30.0883393 L96.9181008,32.3830179 L95.5817647,32.3830179 L95.5817647,26.4430179 Z" id="Fill-20" fill="#56565A" mask="url(#mask-2)"></path>
                        <polygon id="Fill-21" fill="#56565A" mask="url(#mask-2)" points="102.700792 27.4888821 101.096716 27.4888821 101.096716 26.4423107 105.661254 26.4423107 105.661254 27.4888821 104.055999 27.4888821 104.055999 32.3823107 102.700792 32.3823107"></polygon>
                        <polygon id="Fill-22" fill="#56565A" mask="url(#mask-2)" points="106.994759 26.4426643 108.556373 26.4426643 110.819771 30.3543429 110.819771 26.4426643 112.01693 26.4426643 112.01693 32.3826643 110.668799 32.3826643 108.191918 28.1527714 108.191918 32.3826643 106.994759 32.3826643"></polygon>
                        <polygon id="Fill-23" fill="#56565A" mask="url(#mask-2)" points="113.790494 26.4426643 117.663864 26.4426643 117.663864 27.4892357 115.129189 27.4892357 115.129189 28.8752357 117.156693 28.8752357 117.156693 29.8558071 115.129189 29.8558071 115.129189 31.3349143 117.797144 31.3349143 117.797144 32.3826643 113.790494 32.3826643"></polygon>
                        <path d="M121.326934,29.176125 C121.999231,29.176125 122.340097,28.8932679 122.340097,28.3193036 L122.340097,28.2863036 C122.340097,27.6793393 121.975641,27.4730893 121.326934,27.4730893 L120.568537,27.4730893 L120.568537,29.176125 L121.326934,29.176125 Z M119.232201,26.4430179 L121.35878,26.4430179 C122.765884,26.4430179 123.655202,27.0158036 123.655202,28.2450536 L123.655202,28.2780536 C123.655202,29.176125 123.130339,29.6487321 122.432095,29.8561607 L124.004325,32.3830179 L122.574811,32.3830179 L121.152373,30.0883393 L120.568537,30.0883393 L120.568537,32.3830179 L119.232201,32.3830179 L119.232201,26.4430179 Z" id="Fill-24" fill="#56565A" mask="url(#mask-2)"></path>
                        <path d="M37.5230913,11.6610214 L37.5230913,11.5667357 C37.5230913,9.03398571 39.3264964,7.26730714 41.8139923,7.26730714 C43.6881653,7.26730714 45.361829,8.12648571 45.5623384,10.2125571 L43.664576,10.2125571 C43.4994506,9.22255714 42.8519232,8.7747 41.8375816,8.7747 C40.3750425,8.7747 39.5152111,9.86959286 39.5152111,11.5903071 L39.5152111,11.6845929 C39.5152111,13.3098429 40.2110966,14.4766286 41.861171,14.4766286 C43.2753519,14.4766286 43.8532907,13.6634143 43.8886747,12.6969857 L41.9909123,12.6969857 L41.9909123,11.30745 L45.7746425,11.30745 L45.7746425,12.2019857 C45.7746425,14.4530571 44.3368722,15.9486643 41.8139923,15.9486643 C39.055219,15.9486643 37.5230913,14.1584143 37.5230913,11.6610214" id="Fill-25" fill="#FFFFFF" mask="url(#mask-2)"></path>
                        <polygon id="Fill-26" fill="#FFFFFF" mask="url(#mask-2)" points="47.3239903 7.39671429 49.2335474 7.39671429 49.2335474 14.322 52.6634374 14.322 52.6634374 15.8187857 47.3239903 15.8187857"></polygon>
                        <path d="M60.0470188,11.63745 L60.0470188,11.5431643 C60.0470188,9.90612857 59.1742132,8.78648571 57.7010589,8.78648571 C56.2385198,8.78648571 55.3550991,9.85898571 55.3550991,11.55495 L55.3550991,11.6492357 C55.3550991,13.3687714 56.3446719,14.4294857 57.7246483,14.4294857 C59.1506239,14.4294857 60.0470188,13.3334143 60.0470188,11.63745 M53.3629793,11.6610214 L53.3629793,11.5667357 C53.3629793,9.05755714 55.2017684,7.27909286 57.7010589,7.27909286 C60.2357335,7.27909286 62.0391386,8.98684286 62.0391386,11.5195929 L62.0391386,11.6138786 C62.0391386,14.1218786 60.3171167,15.9486643 57.6892643,15.9486643 C55.0484376,15.9486643 53.3629793,14.1218786 53.3629793,11.6610214" id="Fill-27" fill="#FFFFFF" mask="url(#mask-2)"></path>
                        <path d="M66.760427,14.5004357 C67.7040006,14.5004357 68.1286087,14.07615 68.1286087,13.3100786 L68.1286087,13.2629357 C68.1286087,12.4862571 67.7040006,12.0855429 66.6660696,12.0855429 L65.4523981,12.0855429 L65.4523981,14.5004357 L66.760427,14.5004357 Z M66.5941222,10.8610071 C67.5152859,10.8610071 67.8797412,10.5298286 67.8797412,9.77672143 L67.8797412,9.72957857 C67.8797412,9.02361429 67.4787224,8.7054 66.583507,8.7054 L65.4523981,8.7054 L65.4523981,10.8610071 L66.5941222,10.8610071 Z M63.5900197,7.39718571 L66.901963,7.39718571 C68.7407521,7.39718571 69.6949409,8.15029286 69.6949409,9.58815 L69.6949409,9.63529286 C69.6949409,10.5192214 69.2715122,11.1650786 68.3291181,11.43615 C69.424843,11.6600786 70.0145765,12.2859 70.0145765,13.41615 L70.0145765,13.4632929 C70.0145765,15.0072214 68.9990554,15.8180786 67.0552938,15.8180786 L63.5900197,15.8180786 L63.5900197,7.39718571 Z" id="Fill-28" fill="#FFFFFF" mask="url(#mask-2)"></path>
                        <path d="M73.5308035,12.5915036 L75.7588166,12.5915036 L74.6501177,8.952075 L73.5308035,12.5915036 Z M73.5178293,7.39636071 L76.0065047,7.39636071 L78.7416887,15.8184321 L76.7495689,15.8184321 L76.1704506,13.9456821 L73.1168106,13.9456821 L72.5412307,15.8184321 L70.7496203,15.8184321 L73.5178293,7.39636071 Z" id="Fill-29" fill="#FFFFFF" mask="url(#mask-2)"></path>
                        <polygon id="Fill-30" fill="#FFFFFF" mask="url(#mask-2)" points="80.0663481 7.39671429 81.9747257 7.39671429 81.9747257 14.322 85.4046157 14.322 85.4046157 15.8187857 80.0663481 15.8187857"></polygon>
                        <polygon id="Fill-31" fill="#FFFFFF" mask="url(#mask-2)" points="89.619559 7.39671429 95.1135163 7.39671429 95.1135163 8.88053571 91.5161419 8.88053571 91.5161419 10.8475714 94.3940414 10.8475714 94.3940414 12.2382857 91.5161419 12.2382857 91.5161419 14.3349643 95.299872 14.3349643 95.299872 15.8187857 89.619559 15.8187857"></polygon>
                        <polygon id="Fill-32" fill="#FFFFFF" mask="url(#mask-2)" points="96.8022771 7.39671429 98.7118342 7.39671429 98.7118342 14.322 102.140545 14.322 102.140545 15.8187857 96.8022771 15.8187857"></polygon>
                        <polygon id="Fill-33" fill="#FFFFFF" mask="url(#mask-2)" points="103.618535 15.8187857 105.539887 15.8187857 105.539887 7.39671429 103.618535 7.39671429"></polygon>
                        <polygon id="Fill-34" fill="#FFFFFF" mask="url(#mask-2)" points="109.221239 8.88088929 106.944868 8.88088929 106.944868 7.39706786 113.417783 7.39706786 113.417783 8.88088929 111.142591 8.88088929 111.142591 15.8191393 109.221239 15.8191393"></polygon>
                        <polygon id="Fill-35" fill="#FFFFFF" mask="url(#mask-2)" points="114.776529 7.39671429 120.270486 7.39671429 120.270486 8.88053571 116.674291 8.88053571 116.674291 10.8475714 119.551011 10.8475714 119.551011 12.2382857 116.674291 12.2382857 116.674291 14.3349643 120.458021 14.3349643 120.458021 15.8187857 114.776529 15.8187857"></polygon>
                    </g>
                </g>
            </g>
        </g>
    </g>
</svg>