<?xml version="1.0" encoding="UTF-8"?>
<svg width="63px" height="79px" viewBox="0 0 63 79" version="1.1" xmlns="http://www.w3.org/2000/svg" xmlns:xlink="http://www.w3.org/1999/xlink">
    <!-- Generator: Sketch 49.3 (51167) - http://www.bohemiancoding.com/sketch -->
    <title>np_creative-idea_1454272_000000</title>
    <desc>Created with Sketch.</desc>
    <defs></defs>
    <g id="BULLDOG" stroke="none" stroke-width="1" fill="none" fill-rule="evenodd">
        <g id="D_HOMEPAGE-BULLDOG" transform="translate(-688.000000, -2015.000000)" fill="#000000" fill-rule="nonzero">
            <g id="Module-2---Features" transform="translate(175.000000, 1866.000000)">
                <g id="Stacked-Group" transform="translate(89.000000, 148.000000)">
                    <g id="Essential-Creative" transform="translate(365.000000, 1.000000)">
                        <g id="np_creative-idea_1454272_000000" transform="translate(59.000000, 0.000000)">
                            <path d="M17.9959974,47.2538296 C17.238336,47.9704089 16.7647761,48.9697121 16.7647761,50.0741678 C16.7647761,51.0865645 17.1706661,52.0037046 17.8201333,52.7038243 C17.1707094,53.4039693 16.7647761,54.3210841 16.7647761,55.3334809 C16.7647761,57.0460815 17.9012681,58.4923505 19.4707094,59.0346909 L19.4707094,65.852107 C19.4707094,66.2071148 19.61954,66.5358177 19.8698367,66.7790925 L19.8664536,66.7823802 L32.0427205,78.6154138 C32.3065511,78.8718074 32.6549368,79 32.9999714,79 C33.3450061,79 33.6933657,78.8718074 33.9572224,78.6154138 L46.1334892,66.7823802 L46.1301062,66.7790925 C46.3804028,66.5358513 46.5292335,66.2071401 46.5292335,65.852107 L46.5292335,59.0346909 C48.0986748,58.489035 49.2351668,57.0427155 49.2351668,55.3334809 C49.2351668,54.3210841 48.8292768,53.4039441 48.1798095,52.7038243 C48.8292335,52.0036794 49.2351668,51.0865645 49.2351668,50.0741678 C49.2351668,48.9697121 48.7616241,47.9704426 48.0039455,47.2538296 C53.0403584,43.0266883 56,36.8538536 56,30.3516597 C56,18.0255129 45.6836835,8 33,8 C20.3163165,8 10,18.0255129 10,30.3516597 C10,36.853517 12.9596416,43.0261834 17.9960545,47.2538296 L17.9959974,47.2538296 Z M29.8077209,35.9164337 L24.5818493,31.6827287 C23.0530187,30.4434663 22.176989,28.6257636 22.176989,26.692945 C22.176989,24.438004 24.0745193,22.4625219 26.2358889,22.4625219 C26.6553129,22.4625219 27.0679656,22.5282633 27.4637332,22.6564601 C27.4366739,22.6926181 27.416379,22.7353498 27.3927027,22.7715086 C27.2506434,22.9753091 27.1221094,23.1856816 27.0071094,23.4026262 C26.98005,23.4519316 26.9496085,23.4979502 26.9259314,23.5472531 C26.7906347,23.8102187 26.6790117,24.0863369 26.5843084,24.3657368 C26.5606312,24.4380519 26.5403363,24.5136539 26.51666,24.5859716 C26.4490117,24.8062064 26.3948974,25.029723 26.354304,25.2565298 C26.3373922,25.3419915 26.3204794,25.4241715 26.3103328,25.5096332 C26.2663608,25.8021856 26.2359192,26.1045919 26.2359192,26.4069982 C26.2359192,28.3825645 27.1593136,30.2430149 28.7693655,31.5052501 C29.0162852,31.6991883 29.3173148,31.7978025 29.6183532,31.7978025 C29.9193915,31.7978025 30.2204212,31.6991883 30.4673408,31.5052501 C32.0773928,30.2430149 33.0007871,28.3825645 33.0007871,26.4069982 C33.0007871,26.1045835 32.9703456,25.8021772 32.9297566,25.5063514 C32.9162269,25.4208897 32.9026972,25.3387097 32.8857854,25.253248 C32.8451955,25.0264412 32.7910734,24.8029162 32.7234294,24.5826814 C32.7031344,24.5103662 32.6828395,24.4347642 32.6591632,24.3624466 C32.5644512,24.0830466 32.4494512,23.8102187 32.3175402,23.5439628 C32.2938631,23.4979443 32.2634216,23.4519207 32.2363622,23.4026177 C32.1179766,23.182383 31.9860656,22.9687202 31.8439976,22.7649281 C31.8203213,22.7287702 31.8034095,22.6893253 31.7763501,22.6531698 C32.5678334,22.3967762 33.4438977,22.3967762 34.2353291,22.6531698 C34.2082698,22.6893278 34.1913579,22.7287727 34.1676808,22.7649281 C34.0256215,22.9720104 33.8937018,23.182383 33.7753248,23.4026177 C33.7482655,23.4486363 33.7212061,23.4946515 33.6941468,23.5439628 C33.5588501,23.8069285 33.4472271,24.0830382 33.3525238,24.3624466 C33.3288467,24.4347626 33.3085526,24.5070819 33.2882577,24.5826814 C33.2206093,24.8029162 33.166495,25.0264328 33.1259017,25.253248 C33.1089898,25.3387097 33.0920779,25.4208897 33.0819305,25.5063514 C33.031194,25.8021856 33.0007525,26.1046003 33.0007525,26.4069982 C33.0007525,28.3825645 33.9241468,30.2430149 35.5341987,31.5052501 C35.7811184,31.6991883 36.0821481,31.7978025 36.3831864,31.7978025 C36.6842247,31.7978025 36.9852544,31.6991883 37.232174,31.5052501 C38.842226,30.2430149 39.7656203,28.3825645 39.7656203,26.4069982 C39.7656203,26.1045835 39.7351788,25.8021772 39.6945898,25.5063514 C39.6810601,25.4208897 39.6675305,25.3387097 39.6506186,25.253248 C39.6100287,25.0264412 39.5559066,24.8029162 39.4882626,24.5826814 C39.4679677,24.5103662 39.4476727,24.4347642 39.4206134,24.3624466 C39.3259101,24.0830466 39.2109014,23.8102187 39.0789904,23.5439628 C39.0553141,23.4946566 39.0248717,23.4486388 38.9978124,23.3993275 C38.8828124,23.182383 38.7508927,22.9720104 38.6122191,22.76821 C38.5851597,22.7287651 38.5682479,22.6893203 38.5411885,22.6531614 C38.9335445,22.5282506 39.3428202,22.4625134 39.7656558,22.4625134 C41.9270254,22.4625134 43.8245558,24.4380797 43.8245558,26.6929366 C43.8245558,28.6257551 42.9485261,30.4467397 41.4196954,31.6827203 L36.1938239,35.9164253 C35.8860229,36.1662468 35.7067559,36.5343988 35.7067559,36.9255402 L35.7067559,46.1297588 L30.2948893,46.1297588 L30.2948893,36.9255402 C30.2948893,36.5343819 30.1156223,36.16623 29.8078213,35.9164253 L29.8077209,35.9164337 Z M29.8990472,24.7372379 C30.0140472,24.9673349 30.0952252,25.2072858 30.1594922,25.4538172 C30.1764041,25.512984 30.1899337,25.5754377 30.2034634,25.6346029 C30.2575821,25.8877063 30.2947897,26.1440999 30.2947897,26.4070655 C30.2947897,26.6700312 30.2575829,26.9264248 30.2034634,27.176238 C30.1899337,27.2354057 30.1764041,27.2978585 30.1594922,27.3570237 C30.0952261,27.6035551 30.0106615,27.843506 29.8990472,28.073603 C29.8922819,28.0900381 29.8787523,28.1064733 29.8686048,28.1261961 C29.7975743,28.2609692 29.7028632,28.3858716 29.6183081,28.5140726 C29.5303675,28.38588 29.4356555,28.264251 29.3680115,28.1261961 C29.357864,28.109761 29.3477165,28.093325 29.3375691,28.073603 C29.2225691,27.843506 29.1413911,27.6002648 29.0771241,27.3570237 C29.0602122,27.2978569 29.0466826,27.2354031 29.0331529,27.176238 C28.9790342,26.9264248 28.9418266,26.6700312 28.9418266,26.4070655 C28.9418266,26.1440999 28.9790334,25.8877063 29.0331529,25.6378931 C29.0466826,25.5787254 29.0602122,25.5162726 29.0771241,25.4571074 C29.1413902,25.210576 29.2259547,24.9706251 29.3375691,24.7405281 C29.3477165,24.7240929 29.357864,24.7076578 29.3680115,24.687935 C29.439042,24.5531619 29.5337531,24.4282595 29.6183081,24.3000585 C29.7062488,24.4282511 29.8009608,24.5498801 29.8686048,24.687935 C29.8787523,24.7043701 29.8888997,24.7175192 29.8990472,24.7372412 L29.8990472,24.7372379 Z M36.6638804,24.7372379 C36.7788804,24.9673349 36.8600584,25.2072858 36.9243254,25.4538172 C36.9412373,25.512984 36.954767,25.5754377 36.9682966,25.6346029 C37.0224153,25.8877063 37.059623,26.1440999 37.059623,26.4070655 C37.059623,26.6700312 37.0224162,26.9264248 36.9682966,27.176238 C36.954767,27.2354057 36.9412373,27.2978585 36.9243254,27.3570237 C36.8600593,27.6035551 36.7754948,27.843506 36.6638804,28.073603 C36.6571152,28.0900381 36.6435855,28.1064733 36.633438,28.1261961 C36.5624075,28.2609692 36.4676964,28.3858716 36.3831414,28.5140726 C36.2952007,28.38588 36.2004887,28.264251 36.1328447,28.1261961 C36.1226972,28.109761 36.1125498,28.093325 36.1024023,28.073603 C35.9874023,27.843506 35.9062243,27.6002648 35.8419573,27.3570237 C35.8250454,27.2978569 35.8115158,27.2354031 35.7979861,27.176238 C35.7438674,26.9264248 35.7066598,26.6700312 35.7066598,26.4070655 C35.7066598,26.1440999 35.7438666,25.8877063 35.7979861,25.6378931 C35.8115158,25.5787254 35.8250454,25.5162726 35.8419573,25.4571074 C35.9062234,25.210576 35.990788,24.9706251 36.1024023,24.7405281 C36.1125498,24.7240929 36.1226972,24.7076578 36.1328447,24.687935 C36.2038752,24.5531619 36.2985864,24.4282595 36.3831414,24.3000585 C36.471082,24.4282511 36.565794,24.5498801 36.633438,24.687935 C36.6435855,24.7043701 36.653733,24.7175192 36.6638804,24.7372412 L36.6638804,24.7372379 Z M45.170642,48.7592554 L45.1875538,48.7625423 C45.9283042,48.7658291 46.5303895,49.350929 46.5303895,50.0740887 C46.5303895,50.7972485 45.9215588,51.388917 45.1774228,51.388917 L20.8240232,51.388917 C20.0798872,51.388917 19.4710566,50.7972485 19.4710566,50.0740887 C19.4710566,49.350929 20.0798872,48.7592605 20.8240232,48.7592605 L45.170642,48.7592554 Z M22.948219,66.0560842 L24.8829829,64.8036945 L28.1909755,66.9468856 C28.6442215,67.2427198 29.2361152,67.2427198 29.6927902,66.9468856 L33.0007828,64.8036945 L36.3087754,66.9468856 C36.7620214,67.2427198 37.3539151,67.2427198 37.81059,66.9468856 L41.1185826,64.8036945 L43.0533466,66.059366 L37.8512007,71.1115883 L28.1470745,71.1115883 L22.948219,66.0560842 Z M41.8698363,62.1280084 C41.4165903,61.8321742 40.8246966,61.8321742 40.3680217,62.1280084 L37.0600291,64.2711996 L33.7520364,62.1280084 C33.2987905,61.8321742 32.7068968,61.8321742 32.2502218,62.1280084 L28.9422292,64.2711996 L25.6342366,62.1280084 C25.1809906,61.8321742 24.5890969,61.8321742 24.132422,62.1280084 L22.177396,63.3935254 L22.177396,59.278134 L43.8248623,59.278134 L43.8248623,63.3935254 L41.8698363,62.1280084 Z M33.0013023,75.8249426 L30.8568177,73.7409083 L35.1490773,73.7409083 L33.0013023,75.8249426 Z M45.1775692,56.648225 L20.8241696,56.648225 C20.0800336,56.648225 19.4712029,56.0565565 19.4712029,55.3333967 C19.4712029,54.610237 20.0800336,54.0185685 20.8241696,54.0185685 L45.1775692,54.0185685 C45.9217051,54.0185685 46.5305358,54.610237 46.5305358,55.3333967 C46.5305358,56.0565565 45.9217051,56.648225 45.1775692,56.648225 Z M33.0013023,10.628815 C44.1904447,10.628815 53.2962349,19.4779248 53.2962349,30.3516597 C53.2962349,36.5445219 50.2588356,42.4051638 45.1479554,46.1295989 L38.4136018,46.1295989 L38.4136018,37.5405096 L43.1524054,33.701211 C45.300267,31.9656377 46.5314017,29.4082652 46.5314017,26.6931974 C46.5314017,22.9754942 43.4331297,19.8331178 39.7665685,19.8331178 C38.5658268,19.8331178 37.4123632,20.1552486 36.3807316,20.7501737 C34.2972062,19.5767157 31.7096413,19.5767157 29.6260294,20.7501737 C28.5910207,20.1552149 27.4376437,19.8331178 26.2368155,19.8331178 C22.5702542,19.8331178 19.4719822,22.9755784 19.4719822,26.6931974 C19.4719822,29.4083493 20.7032035,31.9656377 22.8509785,33.7044928 L27.5897821,37.5405096 L27.5897821,46.1295989 L20.8554285,46.1295989 C15.7446349,42.4053321 12.707149,36.5441853 12.707149,30.3516597 C12.707149,19.4779248 21.8129392,10.628815 33.0020816,10.628815 L33.0013023,10.628815 Z" id="Shape"></path>
                            <polygon id="Shape" points="52 14.7565377 56.7565377 10 59 12.2434623 54.2434623 17"></polygon>
                            <polygon id="Shape" points="52 47.2434623 54.2434623 45 59 49.7565377 56.7565377 52"></polygon>
                            <polygon id="Shape" points="58 29 63 29 63 31 58 31"></polygon>
                            <polygon id="Shape" points="7 12.2434623 9.24346225 10 14 14.7565377 11.7565377 17"></polygon>
                            <polygon id="Shape" points="7 49.7565377 11.7565377 45 14 47.2434623 9.24346225 52"></polygon>
                            <polygon id="Shape" points="0 29 6 29 6 31 0 31"></polygon>
                            <polygon id="Shape" points="47 65 49 65 49 67 47 67"></polygon>
                            <polygon id="Shape" points="52 67 54 67 54 69 52 69"></polygon>
                            <polygon id="Shape" points="52 63 54 63 54 65 52 65"></polygon>
                            <polygon id="Shape" points="58 65 60 65 60 67 58 67"></polygon>
                            <polygon id="Shape" points="58 69 60 69 60 71 58 71"></polygon>
                            <polygon id="Shape" points="58 59 60 59 60 61 58 61"></polygon>
                            <polygon id="Shape" points="13 65 15 65 15 67 13 67"></polygon>
                            <polygon id="Shape" points="8 63 10 63 10 65 8 65"></polygon>
                            <polygon id="Shape" points="8 67 10 67 10 69 8 69"></polygon>
                            <polygon id="Shape" points="2 65 4 65 4 67 2 67"></polygon>
                            <polygon id="Shape" points="2 59 4 59 4 61 2 61"></polygon>
                            <polygon id="Shape" points="2 69 4 69 4 71 2 71"></polygon>
                            <polygon id="Shape" points="30 0 32 0 32 5 30 5"></polygon>
                        </g>
                    </g>
                </g>
            </g>
        </g>
    </g>
</svg>