<?xml version="1.0" encoding="UTF-8"?>
<svg width="90px" height="90px" viewBox="0 0 90 90" version="1.1" xmlns="http://www.w3.org/2000/svg" xmlns:xlink="http://www.w3.org/1999/xlink">
    <!-- Generator: Sketch 49.3 (51167) - http://www.bohemiancoding.com/sketch -->
    <title>Icon/play</title>
    <desc>Created with Sketch.</desc>
    <defs>
        <path d="M45,0 C69.816,0 90,20.184 90,45 C90,69.816 69.816,90 45,90 C20.184,90 0,69.816 0,45 C0,20.184 20.184,0 45,0 Z M45,6 C23.426,6 6,23.426 6,45 C6,66.574 23.426,84 45,84 C66.574,84 84,66.574 84,45 C84,23.426 66.574,6 45,6 Z M32,25 L66,45 L32,65 L32,25 Z" id="path-1"></path>
    </defs>
    <g id="BULLDOG" stroke="none" stroke-width="1" fill="none" fill-rule="evenodd">
        <g id="D_HOMEPAGE-BULLDOG" transform="translate(-694.000000, -2841.000000)">
            <g id="Module-3---Video" transform="translate(33.000000, 2549.000000)">
                <g id="video">
                    <g id="Icon/play" transform="translate(661.000000, 292.000000)">
                        <g id="↳-🎨Color">
                            <mask id="mask-2" fill="white">
                                <use xlink:href="#path-1"></use>
                            </mask>
                            <use id="Mask" fill="#FFFFFF" fill-rule="nonzero" xlink:href="#path-1"></use>
                            <g id="Fill/Solid/BLACK" mask="url(#mask-2)" fill="#000000">
                                <g transform="translate(-31.000000, -31.000000)" id="Rectangle">
                                    <rect x="0" y="0" width="163" height="156"></rect>
                                </g>
                            </g>
                        </g>
                    </g>
                </g>
            </g>
        </g>
    </g>
</svg>