<?xml version="1.0" encoding="UTF-8"?>
<svg width="88px" height="78px" viewBox="0 0 88 78" version="1.1" xmlns="http://www.w3.org/2000/svg" xmlns:xlink="http://www.w3.org/1999/xlink">
    <!-- Generator: Sketch 49.3 (51167) - http://www.bohemiancoding.com/sketch -->
    <title>np_brainstorming_544341_000000</title>
    <desc>Created with Sketch.</desc>
    <defs></defs>
    <g id="BULLDOG" stroke="none" stroke-width="1" fill="none" fill-rule="evenodd">
        <g id="D_HOMEPAGE-BULLDOG" transform="translate(-303.000000, -2015.000000)" fill="#000000" fill-rule="nonzero">
            <g id="Module-2---Features" transform="translate(175.000000, 1866.000000)">
                <g id="Stacked-Group" transform="translate(89.000000, 148.000000)">
                    <g id="Key-Integrations" transform="translate(0.000000, 1.000000)">
                        <g id="np_brainstorming_544341_000000" transform="translate(39.000000, 0.000000)">
                            <path d="M83.031,29.703 C83.054438,29.48816 83.06225,29.27331 83.06225,29.06238 C83.06225,24.70298 79.47635,21.17958 75.09345,21.24988 C74.36689,17.68738 71.21065,14.99988 67.43725,14.99988 C66.47241,14.99988 65.52705,15.17566 64.64035,15.5155 C63.23015,13.285 60.76145,11.8749 58.06225,11.8749 C55.36305,11.8749 52.89425,13.2851 51.48415,15.5155 C51.08571,15.36316 50.67165,15.25378 50.24975,15.16784 L50.24975,8.74984 C50.24975,4.44124 46.74585,0.93734 42.43725,0.93734 L12.74925,0.93734 C8.44065,0.93734 4.93675,4.44124 4.93675,8.74984 L4.93675,26.85184 L2.91725,24.83234 L0.70635,27.04324 L5.39385,31.73074 C5.69854,32.03543 6.10088,32.18777 6.49935,32.18777 C6.89782,32.18777 7.30013,32.03543 7.60485,31.73074 L12.29235,27.04324 L10.08145,24.83234 L8.06195,26.85184 L8.06195,8.74984 C8.06195,6.16394 10.16355,4.06234 12.74945,4.06234 L42.43745,4.06234 C45.02335,4.06234 47.12495,6.16394 47.12495,8.74984 L47.12495,15.17174 C44.02725,15.80455 41.58585,18.26554 41.00775,21.38264 C38.28115,21.89045 36.04685,23.82014 35.10935,26.36704 C33.71095,25.11704 31.88665,24.37484 29.93745,24.37484 C27.23825,24.37484 24.76945,25.78504 23.35935,28.01544 C22.47263,27.6756 21.52735,27.49982 20.56245,27.49982 C16.78905,27.49982 13.63275,30.18732 12.90625,33.74982 C8.56245,33.667789 4.93745,37.20292 4.93745,41.56232 C4.93745,41.77326 4.945262,41.9881 4.9687,42.20294 C2.164,43.42174 0.2499,46.23024 0.2499,49.37484 C0.2499,53.14824 2.9374,56.30454 6.4999,57.03104 L6.4999,61.87484 C6.4999,62.73812 7.19912,63.43734 8.0624,63.43734 L11.1874,63.43734 C14.9608,63.43734 18.1171,60.74984 18.8436,57.18734 L25.2498,57.18734 L25.2498,69.68734 C25.2498,73.99594 28.7537,77.49984 33.0623,77.49984 L59.6243,77.49984 C63.9329,77.49984 67.4368,73.99594 67.4368,69.68734 L67.4368,53.14834 L69.4563,55.16784 L71.6672,52.95694 L66.9797,48.26944 C66.37032,47.66006 65.382,47.66006 64.7688,48.26944 L60.0813,52.95694 L62.2922,55.16784 L64.3117,53.14834 L64.3117,69.68734 C64.3117,72.27324 62.2101,74.37484 59.6242,74.37484 L33.0622,74.37484 C30.4763,74.37484 28.3747,72.27324 28.3747,69.68734 L28.3747,57.18734 L50.2497,57.18734 C54.5583,57.18734 58.0622,53.68344 58.0622,49.37484 C58.0622,47.63264 57.46064,46.00764 56.4606,44.68734 L69.1556,44.68734 C69.88216,48.24984 73.0384,50.93734 76.8118,50.93734 L79.9368,50.93734 C80.80008,50.93734 81.4993,50.23812 81.4993,49.37484 L81.4993,44.53104 C85.0618,43.80448 87.7493,40.64824 87.7493,36.87484 C87.7493,33.73034 85.8352,30.92174 83.0305,29.70294 L83.031,29.703 Z M37.75,41.562 C35.1641,41.562 33.0625,39.4604 33.0625,36.8745 C33.0625,34.6753 34.625,32.7456 36.7734,32.2925 C37.19527,32.202656 37.56246,31.94094 37.789,31.56984 C37.92963,31.33937 37.98041,31.08156 37.98822,30.81984 C38.414,30.69093 38.85931,30.62453 39.31242,30.62453 C41.89832,30.62453 43.99992,32.72613 43.99992,35.31203 C43.99992,36.17531 44.69914,36.87453 45.56242,36.87453 C48.14832,36.87453 50.24992,38.97613 50.24992,41.56203 L37.75,41.562 Z M51.227,44.7925 C53.3754,45.24562 54.9379,47.1753 54.9379,49.3745 C54.9379,51.9604 52.8363,54.062 50.2504,54.062 L17.4384,54.062 C16.57512,54.062 15.8759,54.76122 15.8759,55.6245 C15.8759,58.2104 13.7743,60.312 11.1884,60.312 L9.6259,60.312 L9.6259,55.6245 C9.6259,54.76122 8.92668,54.062 8.0634,54.062 C5.4775,54.062 3.3759,51.9604 3.3759,49.3745 C3.3759,47.1753 4.9384,45.2456 7.0868,44.7925 C7.50867,44.702656 7.87586,44.44094 8.1024,44.06984 C8.32506,43.69875 8.38365,43.25343 8.26646,42.83544 C8.12974,42.34716 8.06334,41.94091 8.06334,41.56204 C8.06334,38.97614 10.16494,36.87454 12.75084,36.87454 C13.1024,36.87454 13.48131,36.929228 13.93834,37.05032 C14.41881,37.17923 14.92662,37.065945 15.31334,36.75735 C15.70006,36.44876 15.9149,35.97219 15.89537,35.47615 C15.891464,35.3824 15.883651,35.30428 15.875839,35.31209 C15.875839,32.72619 17.977439,30.62459 20.563339,30.62459 C21.504749,30.62459 22.411039,30.90193 23.188339,31.42928 C23.590679,31.70272 24.094589,31.77303 24.555539,31.61678 C25.016479,31.46444 25.379759,31.10897 25.539909,30.64803 C26.196159,28.76523 27.965709,27.49963 29.938309,27.49963 C31.680509,27.49963 33.262509,28.48791 34.063309,30.01523 C31.590609,31.35503 29.938309,33.96053 29.938309,36.87463 C29.938309,41.18323 33.442209,44.68713 37.750809,44.68713 L50.984809,44.68713 C51.06684,44.71838 51.137149,44.773068 51.226999,44.7926 L51.227,44.7925 Z M79.938,41.562 C79.07472,41.562 78.3755,42.26122 78.3755,43.1245 L78.3755,47.812 L76.813,47.812 C74.2271,47.812 72.1255,45.7104 72.1255,43.1245 C72.1255,42.26122 71.42628,41.562 70.563,41.562 L53.375,41.562 C53.375,37.7417 50.6211,34.5542 46.9922,33.8823 C46.32032,30.2534 43.1328,27.4995 39.3125,27.4995 C38.86719,27.4995 38.42969,27.546375 38,27.62059 C38.61328,25.74169 40.3594,24.37449 42.4375,24.37449 C43.30078,24.37449 44,23.67527 44,22.81199 C44,20.22609 46.1016,18.12449 48.6875,18.12449 C49.62891,18.12449 50.5352,18.40183 51.3125,18.92918 C51.71484,19.20262 52.21875,19.27293 52.6797,19.11668 C53.14064,18.96434 53.50392,18.60887 53.66407,18.14793 C54.32032,16.26513 56.08987,14.99953 58.06247,14.99953 C60.03507,14.99953 61.80467,16.26513 62.46477,18.14793 C62.62493,18.60496 62.98821,18.96434 63.44915,19.11668 C63.91009,19.27293 64.41399,19.198711 64.81635,18.92918 C65.58979,18.40184 66.49605,18.12449 67.43745,18.12449 C70.02335,18.12449 72.12495,20.22609 72.12885,22.71429 C72.121038,22.768977 72.105413,22.92523 72.105413,22.97601 C72.085882,23.4721 72.300723,23.94476 72.687443,24.25721 C73.074163,24.5658 73.581973,24.67518 74.062443,24.55018 C74.519473,24.42909 74.898383,24.3744 75.249943,24.3744 C77.835843,24.3744 79.937443,26.476 79.937443,29.0619 C79.937443,29.44081 79.871037,29.84706 79.734323,30.3353 C79.617133,30.75327 79.675729,31.19858 79.898383,31.5697 C80.121043,31.94079 80.488223,32.20251 80.913983,32.29236 C83.062383,32.74548 84.624883,34.67516 84.624883,36.87436 C84.624883,39.46026 82.523283,41.56186 79.937383,41.56186 L79.938,41.562 Z" id="Shape"></path>
                            <polygon id="Shape" points="65.875 2.5 69 2.5 69 5.625 65.875 5.625"></polygon>
                            <polygon id="Shape" points="72.125 2.5 75.25 2.5 75.25 5.625 72.125 5.625"></polygon>
                            <polygon id="Shape" points="78.375 2.5 81.5 2.5 81.5 5.625 78.375 5.625"></polygon>
                            <polygon id="Shape" points="6.5 74.375 9.625 74.375 9.625 77.5 6.5 77.5"></polygon>
                            <polygon id="Shape" points="12.75 74.375 15.875 74.375 15.875 77.5 12.75 77.5"></polygon>
                            <polygon id="Shape" points="19 74.375 22.125 74.375 22.125 77.5 19 77.5"></polygon>
                        </g>
                    </g>
                </g>
            </g>
        </g>
    </g>
</svg>