<?xml version="1.0" encoding="utf-8"?>
<!-- Generator: Adobe Illustrator 20.0.0, SVG Export Plug-In . SVG Version: 6.00 Build 0)  -->
<svg version="1.1" id="Layer_1" xmlns="http://www.w3.org/2000/svg" xmlns:xlink="http://www.w3.org/1999/xlink" x="0px" y="0px"
	 viewBox="0 0 216 144" style="enable-background:new 0 0 216 144;" xml:space="preserve">
<style type="text/css">
	.st0{fill:none;}
</style>
<path class="st0" d="M44.7,78.7H34v8.9h10.7c2.5,0,3.8-2.2,3.8-4.4C48.4,81,47.2,78.7,44.7,78.7z"/>
<polygon class="st0" points="169,94.7 182.7,94.7 169,75.1 "/>
<path class="st0" d="M87.2,60.7c-6.6,0.1-13.1,4.7-13.1,13.8s6.5,13.7,13.1,13.8c6.8,0.1,13.6-4.5,13.6-13.8
	C100.9,65.2,94,60.6,87.2,60.7z"/>
<path class="st0" d="M46.1,64.2c0-1.7-1-3.4-2.9-3.4H34v6.8h9C45.1,67.7,46.1,66,46.1,64.2z"/>
<path class="st0" d="M141.2,66.5c0.1-2.6-1.7-5.4-5.4-5.4H129v10.5h6.8C139.3,71.5,141.1,69,141.2,66.5z"/>
<polygon class="st0" points="128.9,82.4 128.9,94.7 138.5,94.7 130.9,82.4 "/>
<path d="M60.3,83.1c0-4.1-2.1-8.4-7.3-11c3.3-2.3,4.7-5.8,4.7-9.2c0-6.4-5.2-12.9-12.9-12.9H22.2v44.7h33.4
	C58.7,91.7,60.3,87.4,60.3,83.1z M34,60.9h9.1c1.9,0,2.9,1.7,2.9,3.4c0,1.7-1,3.5-3.1,3.5h-9L34,60.9L34,60.9z M44.7,87.6H34v-8.9
	h10.7c2.5,0,3.8,2.2,3.8,4.5C48.4,85.4,47.2,87.6,44.7,87.6z"/>
<path d="M112.9,74.6c0-14.4-11.4-25.3-25.4-25.3S62.2,60.2,62.2,74.6c0,8.5,4,15.7,10.1,20.2h30.3C108.9,90.2,112.9,83,112.9,74.6z
	 M87.2,88.3c-6.6-0.1-13.1-4.6-13.1-13.8c0-9.1,6.5-13.7,13.1-13.8c6.8-0.1,13.6,4.5,13.6,13.8C100.9,83.8,94,88.4,87.2,88.3z"/>
<path d="M128.9,82.4h2l7.6,12.4h14l-9.2-13.6c6.3-3,9.4-9.1,9.6-15c0.1-8.2-5.5-16.6-16.8-16.6h-19v45.1H129V82.4H128.9z
	 M128.9,61.1h6.8c3.7,0,5.5,2.9,5.4,5.4c-0.1,2.4-2,5-5.4,5h-6.8V61.1z"/>
<polygon points="169,75.1 182.7,94.7 195,94.7 195,50 183.2,50 183.2,74.5 166.3,50 157.1,50 157.1,94.7 169,94.7 "/>
</svg>
